<svg width="24" height="24" viewBox="0 0 24 24" fill="none" xmlns="http://www.w3.org/2000/svg">
<path d="M12.85 12.1C12.6833 12.2666 12.5 12.3083 12.3 12.225C12.1 12.1416 12 11.9833 12 11.75V3.94995C12 3.66662 12.096 3.42895 12.288 3.23695C12.4793 3.04562 12.7167 2.94995 13 2.94995H20C20.2833 2.94995 20.5207 3.04562 20.712 3.23695C20.904 3.42895 21 3.66662 21 3.94995V8.94995C21 9.23328 20.904 9.47062 20.712 9.66195C20.5207 9.85395 20.2833 9.94995 20 9.94995H15L12.85 12.1ZM19.95 21C17.8 21 15.7043 20.5206 13.663 19.562C11.621 18.604 9.81267 17.3373 8.238 15.762C6.66267 14.1873 5.396 12.379 4.438 10.337C3.47933 8.29562 3 6.19995 3 4.04995C3 3.74995 3.1 3.49995 3.3 3.29995C3.5 3.09995 3.75 2.99995 4.05 2.99995H8.1C8.33333 2.99995 8.54167 3.07495 8.725 3.22495C8.90833 3.37495 9.01667 3.56662 9.05 3.79995L9.7 7.29995C9.73333 7.53328 9.72933 7.74562 9.688 7.93695C9.646 8.12895 9.55 8.29995 9.4 8.44995L7 10.9C7.7 12.1 8.575 13.225 9.625 14.275C10.675 15.325 11.8333 16.2333 13.1 17L15.45 14.65C15.6 14.5 15.796 14.3873 16.038 14.312C16.2793 14.2373 16.5167 14.2166 16.75 14.25L20.2 14.95C20.4333 15 20.625 15.1123 20.775 15.287C20.925 15.4623 21 15.6666 21 15.9V19.95C21 20.25 20.9 20.5 20.7 20.7C20.5 20.9 20.25 21 19.95 21Z" fill="url(#paint0_linear_308_4)"/>
<defs>
<linearGradient id="paint0_linear_308_4" x1="12" y1="2.94995" x2="12" y2="21" gradientUnits="userSpaceOnUse">
<stop stop-color="#007483"/>
<stop offset="1" stop-color="#B2B2B2"/>
</linearGradient>
</defs>
</svg>
