<svg width="24" height="24" viewBox="0 0 24 24" fill="none" xmlns="http://www.w3.org/2000/svg">
<path d="M15.8398 10.2L14.8298 11.21L12.7598 9.18L13.7698 8.16C13.9698 7.95 14.3098 7.94 14.5498 8.16L15.8398 9.41C16.0498 9.62 16.0598 9.96 15.8398 10.2ZM7.9998 13.91L12.1698 9.72L14.2398 11.8L10.0798 16H7.9998V13.91ZM12.9998 2V4C17.3898 4.54 20.4998 8.53 19.9598 12.92C19.7391 14.689 18.9348 16.3339 17.6742 17.5944C16.4137 18.855 14.7688 19.6593 12.9998 19.88V21.88C18.4998 21.28 22.4498 16.34 21.8498 10.85C21.3298 6.19 17.6598 2.5 12.9998 2ZM10.9998 2C9.0398 2.18 7.18981 2.95 5.6698 4.2L7.0998 5.74C8.2198 4.84 9.5698 4.26 10.9998 4.06V2.06M4.2598 5.67C3.00548 7.18495 2.2355 9.04196 2.0498 11H4.0498C4.2398 9.58 4.7998 8.23 5.6898 7.1L4.2598 5.67ZM2.0598 13C2.2598 14.96 3.0298 16.81 4.2698 18.33L5.6898 16.9C4.80673 15.7696 4.24376 14.4226 4.0598 13H2.0598ZM7.0598 18.37L5.6698 19.74C7.18458 21.0027 9.03907 21.789 10.9998 22V20C9.57721 19.816 8.23021 19.2531 7.0998 18.37H7.0598Z" fill="url(#paint0_linear_304_8)"/>
<defs>
<linearGradient id="paint0_linear_304_8" x1="11.9799" y1="2" x2="11.9799" y2="22" gradientUnits="userSpaceOnUse">
<stop stop-color="#007483"/>
<stop offset="1" stop-color="#B2B2B2"/>
</linearGradient>
</defs>
</svg>
