<svg width="24" height="24" viewBox="0 0 24 24" fill="none" xmlns="http://www.w3.org/2000/svg">
<path d="M18.2704 6C19.2804 8.17 19.0504 10.73 17.9404 12.81C17.0004 14.5 15.6504 15.93 14.5004 17.5C14.0004 18.2 13.5004 18.95 13.1304 19.76C13.0004 20.03 12.9104 20.31 12.8104 20.59C12.7104 20.87 12.6204 21.15 12.5304 21.43C12.4404 21.69 12.3304 22 12.0004 22C11.6104 22 11.5004 21.56 11.4204 21.26C11.1804 20.53 10.9404 19.83 10.5704 19.16C10.1504 18.37 9.62044 17.64 9.08044 16.93L18.2704 6ZM9.12044 8.42L5.82045 12.34C6.43045 13.63 7.34044 14.73 8.21044 15.83C8.42044 16.08 8.63044 16.34 8.83044 16.61L13.0004 11.67L12.9604 11.68C11.5004 12.18 9.88045 11.44 9.30045 10C9.22045 9.83 9.16044 9.63 9.12044 9.43C9.06543 9.09894 9.06543 8.76106 9.12044 8.43V8.42M6.58044 4.62L6.57045 4.63C4.95045 6.68 4.67044 9.53 5.64044 11.94L9.63045 7.2L9.58044 7.15L6.58044 4.62M14.2204 2.36L11.0004 6.17L11.0404 6.16C12.3804 5.7 13.8804 6.28 14.5604 7.5C14.7104 7.78 14.8304 8.08 14.8704 8.38C14.9304 8.76 14.9504 9.03 14.8804 9.4V9.41L18.0804 5.61C17.244 4.08939 15.8716 2.93445 14.2304 2.37L14.2204 2.36M9.89045 6.89L13.8004 2.24L13.7604 2.23C13.1804 2.08 12.5904 2 12.0004 2C10.0304 2 8.17044 2.85 6.85044 4.31L6.83044 4.32L9.89045 6.89V6.89Z" fill="url(#paint0_linear_308_2)"/>
<defs>
<linearGradient id="paint0_linear_308_2" x1="11.9976" y1="2" x2="11.9976" y2="22" gradientUnits="userSpaceOnUse">
<stop stop-color="#007483"/>
<stop offset="1" stop-color="#B2B2B2"/>
</linearGradient>
</defs>
</svg>
