<svg width="141" height="141" viewBox="0 0 141 141" fill="none" xmlns="http://www.w3.org/2000/svg">
<path d="M117.863 109.85C124.191 102.236 128.592 93.2108 130.694 83.5366C132.796 73.8624 132.537 63.8243 129.939 54.2713C127.341 44.7184 122.48 35.9317 115.768 28.6546C109.056 21.3774 100.69 15.8239 91.378 12.4638C82.0657 9.10375 72.0812 8.03596 62.269 9.35078C52.4568 10.6656 43.1056 14.3244 35.0064 20.0175C26.9073 25.7107 20.2985 33.2708 15.7391 42.0583C11.1797 50.8458 8.80385 60.6022 8.81252 70.5021C8.81585 84.8938 13.8874 98.8245 23.1372 109.85L23.0491 109.925C23.3576 110.295 23.7101 110.612 24.0273 110.978C24.4239 111.432 24.8513 111.859 25.2611 112.3C26.4948 113.639 27.7638 114.926 29.0945 116.133C29.4999 116.503 29.9185 116.847 30.3282 117.2C31.7382 118.416 33.1879 119.57 34.6904 120.645C34.8843 120.777 35.0606 120.949 35.2544 121.086V121.033C45.5743 128.295 57.8854 132.193 70.5044 132.193C83.1235 132.193 95.4345 128.295 105.754 121.033V121.086C105.948 120.949 106.12 120.777 106.318 120.645C107.817 119.566 109.271 118.416 110.681 117.2C111.09 116.847 111.509 116.499 111.914 116.133C113.245 114.922 114.514 113.639 115.748 112.3C116.158 111.859 116.581 111.432 116.982 110.978C117.294 110.612 117.651 110.295 117.96 109.92L117.863 109.85ZM70.5 35.2521C74.4217 35.2521 78.2552 36.415 81.5159 38.5938C84.7767 40.7725 87.3181 43.8692 88.8188 47.4924C90.3196 51.1155 90.7122 55.1023 89.9472 58.9485C89.1821 62.7948 87.2936 66.3278 84.5206 69.1009C81.7476 71.8739 78.2146 73.7623 74.3683 74.5274C70.522 75.2925 66.5352 74.8998 62.9121 73.3991C59.289 71.8983 56.1923 69.3569 54.0135 66.0962C51.8348 62.8355 50.6719 59.0019 50.6719 55.0803C50.6719 49.8215 52.7609 44.7781 56.4794 41.0597C60.1979 37.3412 65.2413 35.2521 70.5 35.2521V35.2521ZM35.2809 109.85C35.3573 104.064 37.7085 98.5416 41.8257 94.4763C45.943 90.411 51.4952 88.1301 57.2813 88.1271H83.7188C89.5048 88.1301 95.0571 90.411 99.1743 94.4763C103.292 98.5416 105.643 104.064 105.719 109.85C96.0556 118.558 83.5084 123.377 70.5 123.377C57.4916 123.377 44.9445 118.558 35.2809 109.85V109.85Z" fill="#00B2BD"/>
</svg>
