<?xml version="1.0" encoding="utf-8"?>
<!-- Generator: Adobe Illustrator 17.0.0, SVG Export Plug-In . SVG Version: 6.00 Build 0)  -->
<!DOCTYPE svg PUBLIC "-//W3C//DTD SVG 1.1//EN" "http://www.w3.org/Graphics/SVG/1.1/DTD/svg11.dtd">
<svg version="1.1" id="Capa_1" xmlns="http://www.w3.org/2000/svg" xmlns:xlink="http://www.w3.org/1999/xlink" x="0px" y="0px"
	 width="42.52px" height="42.52px" viewBox="0 0 42.52 42.52" enable-background="new 0 0 42.52 42.52" xml:space="preserve">
<g>
	<circle fill="#FFFFFF" cx="21.663" cy="21.813" r="17.338"/>
	<g>
		<path fill="#007483" d="M21.287,13.659c-1.522-0.042-2.913,1.152-2.949,2.797c-0.034,1.531,1.242,2.854,2.823,2.913
			c1.538,0.058,2.939-1.233,2.952-2.825C24.165,14.998,22.912,13.705,21.287,13.659z"/>
		<path fill="#007483" d="M21.26,1.701c-10.802,0-19.559,8.757-19.559,19.559c0,10.802,8.757,19.559,19.559,19.559
			c10.802,0,19.559-8.757,19.559-19.559C40.819,10.458,32.062,1.701,21.26,1.701z M30.588,17.056
			c-0.089,1.168-0.44,2.276-0.836,3.365c-0.497,1.369-0.99,2.744-1.585,4.071c-1.134,2.53-2.316,5.04-3.525,7.535
			c-0.819,1.691-1.716,3.344-2.584,5.011c-0.244,0.469-0.513,0.926-0.795,1.434c-0.194-0.331-0.381-0.627-0.546-0.934
			c-0.691-1.293-1.387-2.582-2.058-3.885c-0.637-1.236-1.268-2.476-1.86-3.734c-0.884-1.88-1.755-3.767-2.588-5.67
			c-0.78-1.782-1.486-3.595-1.986-5.481c-0.332-1.253-0.419-2.514-0.201-3.793c0.254-1.49,0.841-2.831,1.788-4.015
			c1.093-1.367,2.428-2.406,4.07-3.036c0.779-0.299,1.592-0.45,2.415-0.554c0.073-0.009,0.145-0.028,0.217-0.042
			c0.498,0,0.996,0,1.493,0c0.553,0.099,1.113,0.172,1.659,0.301c1.37,0.324,2.577,0.976,3.648,1.887
			c0.898,0.764,1.657,1.646,2.222,2.682C30.363,13.711,30.72,15.333,30.588,17.056z"/>
	</g>
</g>
</svg>
