<?xml version="1.0" encoding="utf-8"?>
<!-- Generator: Adobe Illustrator 17.0.0, SVG Export Plug-In . SVG Version: 6.00 Build 0)  -->
<!DOCTYPE svg PUBLIC "-//W3C//DTD SVG 1.1//EN" "http://www.w3.org/Graphics/SVG/1.1/DTD/svg11.dtd">
<svg version="1.1" id="Capa_1" xmlns="http://www.w3.org/2000/svg" xmlns:xlink="http://www.w3.org/1999/xlink" x="0px" y="0px"
	 width="42.52px" height="42.52px" viewBox="0 0 42.52 42.52" enable-background="new 0 0 42.52 42.52" xml:space="preserve">
<ellipse fill="#FFFFFF" cx="21.282" cy="20.615" rx="16.625" ry="14.625"/>
<g>
	<g>
		<path fill="#007483" d="M40.819,21.253c-0.001,10.902-8.706,19.569-19.653,19.566C10.412,40.816,1.674,32.01,1.701,21.202
			C1.728,10.386,10.5,1.692,21.376,1.701C32.099,1.709,40.82,10.479,40.819,21.253z M24.544,21.659
			c-0.858,0.656-1.756,1.295-2.596,2.003c-0.445,0.375-0.744,0.346-1.176-0.013c-0.844-0.704-1.74-1.347-2.405-1.855
			c-2.79,2.786-5.51,5.502-8.098,8.087c7.339,0,14.916,0,22.506,0C30.034,27.143,27.332,24.444,24.544,21.659z M32.806,12.694
			c-7.7,0-15.189,0-22.744,0c0.108,0.133,0.147,0.205,0.206,0.25c3.563,2.743,7.131,5.478,10.686,8.232
			c0.371,0.287,0.603,0.166,0.907-0.07c1.66-1.287,3.33-2.559,4.996-3.838C28.793,15.781,30.729,14.292,32.806,12.694z
			 M32.983,26.903c0-3.904,0-7.753,0-11.725c-2.28,1.751-4.462,3.427-6.635,5.096C28.592,22.516,30.76,24.683,32.983,26.903z
			 M9.728,26.784c2.212-2.196,4.393-4.361,6.607-6.56c-2.148-1.649-4.327-3.321-6.607-5.072C9.728,19.158,9.728,22.974,9.728,26.784
			z"/>
	</g>
</g>
</svg>
