<?xml version="1.0" encoding="utf-8"?>
<!-- Generator: Adobe Illustrator 17.0.0, SVG Export Plug-In . SVG Version: 6.00 Build 0)  -->
<!DOCTYPE svg PUBLIC "-//W3C//DTD SVG 1.1//EN" "http://www.w3.org/Graphics/SVG/1.1/DTD/svg11.dtd">
<svg version="1.1" id="Capa_1" xmlns="http://www.w3.org/2000/svg" xmlns:xlink="http://www.w3.org/1999/xlink" x="0px" y="0px"
	 width="42.52px" height="42.52px" viewBox="0 0 42.52 42.52" enable-background="new 0 0 42.52 42.52" xml:space="preserve">
<circle fill="#FFFFFF" cx="21.123" cy="22.876" r="16.069"/>
<path fill="#007483" d="M21.68,40.158C11.55,40.139,3.505,32.022,3.52,21.836C3.536,11.568,11.598,3.555,21.895,3.575
	c10.119,0.02,18.214,8.16,18.208,18.31C40.098,32.089,31.943,40.178,21.68,40.158z M19.015,18.79
	c-1.261,0.637-3.285-0.66-3.13,1.953c0.147,2.486,0.006,2.494,3.175,2.978c0,3.126,0,6.291,0,9.448c1.523,0,2.834,0,4.297,0
	c0-3.236,0-6.358,0-9.576c0.466-0.033,0.786-0.073,1.107-0.077c3.348-0.043,2.546,0.457,3.188-3.029
	c0.184-0.999-0.169-1.494-1.223-1.462c-0.99,0.03-1.981,0.007-2.945,0.007c-0.408-3.909-0.405-3.892,3.176-4.585
	c0.34-0.066,0.784-0.448,0.883-0.775c0.689-2.269-0.041-3.206-2.395-3.18c-0.391,0.004-0.784,0-1.174,0.035
	c-3.103,0.277-4.869,2.149-4.956,5.27C18.992,16.802,19.015,17.808,19.015,18.79z"/>
</svg>
