<?xml version="1.0" encoding="utf-8"?>
<!-- Generator: Adobe Illustrator 17.0.0, SVG Export Plug-In . SVG Version: 6.00 Build 0)  -->
<!DOCTYPE svg PUBLIC "-//W3C//DTD SVG 1.1//EN" "http://www.w3.org/Graphics/SVG/1.1/DTD/svg11.dtd">
<svg version="1.1" id="Capa_1" xmlns="http://www.w3.org/2000/svg" xmlns:xlink="http://www.w3.org/1999/xlink" x="0px" y="0px"
	 width="42.52px" height="42.52px" viewBox="0 0 42.52 42.52" enable-background="new 0 0 42.52 42.52" xml:space="preserve">
<rect x="6.056" y="7.181" fill="#FFFFFF" width="31.691" height="29.905"/>
<g>
	<path fill="#007483" d="M3.652,35.366c0-9.104,0-18.209,0-27.313c0.043-0.066,0.108-0.127,0.127-0.2
		C4.499,5.092,6.53,3.504,9.37,3.503c8.372-0.003,16.745-0.003,25.117,0c3.363,0.001,5.735,2.348,5.739,5.716
		c0.012,8.454,0.01,16.907,0,25.361c-0.003,2.427-1.569,4.517-3.871,5.242c-0.279,0.088-0.559,0.173-0.839,0.26
		c-9.05,0-18.1,0-27.151,0c-0.85-0.379-1.761-0.663-2.536-1.159C4.56,38.111,4.004,36.782,3.652,35.366z M35.859,21.834
		c0-2.789,0-5.579,0-8.368c0-0.135-0.007-0.271-0.011-0.406c-0.079-2.846-2.268-5.144-5.093-5.167
		c-5.876-0.048-11.753-0.049-17.628,0c-2.863,0.024-5.095,2.371-5.101,5.236C8.012,18.817,8.013,24.503,8.028,30.19
		c0.009,3.271,2.207,5.501,5.494,5.519c5.605,0.031,11.212-0.031,16.817,0.024c3.176,0.031,5.647-2.615,5.54-5.614
		C35.782,27.361,35.859,24.596,35.859,21.834z"/>
	<path fill="#007483" d="M21.901,33.577c-2.735,0-5.471,0.005-8.206-0.001c-2.211-0.005-3.539-1.328-3.541-3.535
		c-0.004-5.525-0.005-11.05,0-16.575c0.002-2.101,1.35-3.456,3.452-3.459c5.552-0.008,11.104-0.008,16.656,0
		c2.099,0.003,3.459,1.352,3.463,3.454c0.011,5.579,0.011,11.158,0,16.738c-0.004,1.995-1.377,3.364-3.375,3.375
		C27.535,33.589,24.718,33.577,21.901,33.577z M21.927,14.266c-4.061,0.011-7.513,3.413-7.518,7.41
		c-0.005,4.215,3.379,7.648,7.533,7.642c4.079-0.006,7.556-3.466,7.525-7.49C29.436,17.664,26.036,14.255,21.927,14.266z
		 M29.407,12.132c-1.16,0.022-2.174,1.076-2.128,2.213c0.047,1.151,1.026,2.11,2.155,2.111c1.155,0.001,2.186-1.034,2.169-2.177
		C31.584,13.116,30.556,12.11,29.407,12.132z"/>
	<path fill="#007483" d="M27.267,21.822c-0.01,2.99-2.376,5.321-5.376,5.296c-2.963-0.024-5.269-2.346-5.276-5.313
		c-0.007-3.001,2.331-5.34,5.334-5.336C24.949,16.473,27.277,18.816,27.267,21.822z"/>
</g>
</svg>
