<?xml version="1.0" encoding="utf-8"?>
<!-- Generator: Adobe Illustrator 17.0.0, SVG Export Plug-In . SVG Version: 6.00 Build 0)  -->
<!DOCTYPE svg PUBLIC "-//W3C//DTD SVG 1.1//EN" "http://www.w3.org/Graphics/SVG/1.1/DTD/svg11.dtd">
<svg version="1.1" id="Capa_1" xmlns="http://www.w3.org/2000/svg" xmlns:xlink="http://www.w3.org/1999/xlink" x="0px" y="0px"
	 width="42.52px" height="42.52px" viewBox="0 0 42.52 42.52" enable-background="new 0 0 42.52 42.52" xml:space="preserve">
<g>
	<circle fill="#FFFFFF" cx="21.11" cy="20.921" r="17.774"/>
	<g>
		<defs>
			<rect id="SVGID_1_" x="1.699" y="1.699" width="39.121" height="39.121"/>
		</defs>
		<clipPath id="SVGID_2_">
			<use xlink:href="#SVGID_1_"  overflow="visible"/>
		</clipPath>
		<path clip-path="url(#SVGID_2_)" fill="#007483" d="M19.615,21.464v-3.926c-0.578-0.109-2.318-0.033-3.005,0.125
			c-4.024,0.927-6.533,4.635-5.84,8.72c0.709,4.188,4.761,6.969,8.927,6.113c3.67-0.758,6.097-3.801,6.102-7.553
			c0-2.841,0-5.677,0-8.518v-0.442c1.505,1.5,3.294,2.198,5.317,2.476c0.256-1.276,0.502-2.536,0.758-3.817
			c-0.115-0.027-0.196-0.049-0.284-0.06c-1.451-0.185-2.683-0.818-3.73-1.832c-0.796-0.763-1.429-1.647-1.936-2.618
			c-0.098-0.196-0.218-0.273-0.447-0.273c-1.102,0.016-2.203,0.005-3.305,0.005h-0.349v0.425c0,4.902,0,9.805-0.005,14.707
			c0,2.432-2.225,4.172-4.526,3.545c-1.778-0.485-2.868-2.143-2.634-4.003c0.213-1.707,1.761-3.054,3.545-3.076
			C18.666,21.453,19.129,21.464,19.615,21.464 M40.822,21.284c-0.011,10.781-8.791,19.544-19.577,19.539
			c-10.841-0.011-19.56-8.796-19.544-19.697c0.011-10.683,8.85-19.451,19.588-19.43C32.081,1.718,40.833,10.497,40.822,21.284"/>
	</g>
</g>
</svg>
