<?xml version="1.0" encoding="utf-8"?>
<!-- Generator: Adobe Illustrator 17.0.0, SVG Export Plug-In . SVG Version: 6.00 Build 0)  -->
<!DOCTYPE svg PUBLIC "-//W3C//DTD SVG 1.1//EN" "http://www.w3.org/Graphics/SVG/1.1/DTD/svg11.dtd">
<svg version="1.1" id="Capa_1" xmlns="http://www.w3.org/2000/svg" xmlns:xlink="http://www.w3.org/1999/xlink" x="0px" y="0px"
	 width="42.52px" height="42.52px" viewBox="0 0 42.52 42.52" enable-background="new 0 0 42.52 42.52" xml:space="preserve">
<g>
	<circle fill="#FFFFFF" cx="21.251" cy="22.269" r="16.069"/>
	<path fill="#007483" d="M22.478,39.552c-0.81,0-1.619,0-2.429,0c-0.104-0.023-0.206-0.059-0.311-0.066
		c-1.755-0.122-3.448-0.522-5.082-1.16C6.74,35.231,1.968,27.211,3.146,18.726c0.598-4.31,2.512-7.984,5.733-10.913
		c4.242-3.858,9.264-5.411,14.937-4.661c4.3,0.569,7.938,2.521,10.888,5.707c2.417,2.61,3.945,5.678,4.562,9.188
		c0.117,0.663,0.192,1.333,0.286,2c0,0.81,0,1.619,0,2.429c-0.055,0.445-0.098,0.891-0.165,1.335
		c-0.647,4.29-2.533,7.938-5.718,10.889c-2.619,2.427-5.697,3.959-9.221,4.571C23.794,39.383,23.135,39.459,22.478,39.552z
		 M31.515,13.968c-0.017-0.038-0.035-0.076-0.052-0.113c1.055-0.709,1.83-1.631,2.256-2.901c-0.144,0.072-0.227,0.111-0.308,0.156
		c-0.877,0.488-1.81,0.835-2.787,1.052c-0.147,0.033-0.372,0.012-0.472-0.08c-1.331-1.241-2.883-1.723-4.686-1.476
		c-2.337,0.321-4.38,2.501-4.494,4.853c-0.027,0.563-0.004,1.129-0.004,1.73c-4.45-0.313-8.144-2.205-11.075-5.636
		C9.277,12.598,9.07,13.7,9.202,14.845c0.185,1.612,0.977,2.898,2.36,3.903c-0.918-0.022-1.679-0.281-2.427-0.638
		c-0.063,1.797,1.018,4.478,4.253,5.354c-0.79,0.239-1.553,0.203-2.367,0.12c0.917,2.305,2.566,3.529,5.051,3.741
		c-2.355,1.791-4.942,2.501-7.809,2.309c0.092,0.096,0.185,0.16,0.282,0.217c3.097,1.811,6.429,2.451,9.977,1.995
		c3.887-0.5,7.109-2.232,9.596-5.27c2.372-2.896,3.599-6.23,3.637-9.977c0.005-0.54,0.145-0.879,0.581-1.206
		c0.813-0.611,1.483-1.375,2.025-2.201C33.418,13.449,32.466,13.708,31.515,13.968z"/>
</g>
</svg>
