<?xml version="1.0" encoding="utf-8"?>
<!-- Generator: Adobe Illustrator 17.0.0, SVG Export Plug-In . SVG Version: 6.00 Build 0)  -->
<!DOCTYPE svg PUBLIC "-//W3C//DTD SVG 1.1//EN" "http://www.w3.org/Graphics/SVG/1.1/DTD/svg11.dtd">
<svg version="1.1" id="Capa_1" xmlns="http://www.w3.org/2000/svg" xmlns:xlink="http://www.w3.org/1999/xlink" x="0px" y="0px"
	 width="42.52px" height="42.52px" viewBox="0 0 42.52 42.52" enable-background="new 0 0 42.52 42.52" xml:space="preserve">
<g>
	<circle fill="#FFFFFF" cx="22.343" cy="20.41" r="15.473"/>
	<path fill="#007483" d="M40.197,19.148c0,1.346,0,2.692,0,4.038c-0.307,0.27-0.232,0.665-0.292,0.999
		C37.92,35.309,26.458,42.155,15.767,38.59c-2.186-1.421-4.427-1.016-6.68-0.199c-0.131,0.047-0.269,0.073-0.403,0.112
		c-1.992,0.592-4.049,0.952-6.005,1.675c-0.291,0.067-0.404-0.045-0.336-0.336c0.24-0.113,0.235-0.37,0.301-0.567
		c0.916-2.725,1.806-5.46,2.736-8.181c0.17-0.498,0.107-0.868-0.137-1.328c-2.069-3.89-2.744-8.013-1.917-12.351
		C4.94,8.939,12.243,2.653,20.812,2.336c8.777-0.324,16.502,5.372,18.731,13.829C39.802,17.148,39.981,18.153,40.197,19.148z
		 M27.685,32.327c1.178,0.007,2.236-0.38,3.207-1.051c0.768-0.531,1.392-1.216,2.042-1.871c0.942-0.949,1-1.791,0.158-2.817
		c-1.046-1.275-2.38-2.207-3.8-3.008c-0.703-0.396-1.392-0.36-1.913,0.399c-0.236,0.344-0.533,0.65-0.821,0.955
		c-1.142,1.206-2.517,1.291-3.696,0.147c-1.851-1.795-3.674-3.621-5.473-5.469c-1.051-1.08-1.003-2.439,0.063-3.512
		c0.374-0.377,0.785-0.721,1.203-1.048c0.551-0.43,0.681-0.985,0.388-1.566c-0.826-1.639-1.873-3.126-3.355-4.243
		c-0.767-0.578-1.641-0.53-2.305,0.092c-0.654,0.612-1.304,1.241-1.868,1.934c-1.382,1.698-1.681,3.61-0.965,5.68
		c0.628,1.817,1.77,3.298,3.095,4.642c2.322,2.356,4.674,4.683,7.015,7.021c0.735,0.734,1.515,1.418,2.368,2.012
		C24.426,31.596,25.912,32.343,27.685,32.327z"/>
</g>
</svg>
