<?xml version="1.0" encoding="utf-8"?>
<!-- Generator: Adobe Illustrator 17.0.0, SVG Export Plug-In . SVG Version: 6.00 Build 0)  -->
<!DOCTYPE svg PUBLIC "-//W3C//DTD SVG 1.1//EN" "http://www.w3.org/Graphics/SVG/1.1/DTD/svg11.dtd">
<svg version="1.1" id="Capa_1" xmlns="http://www.w3.org/2000/svg" xmlns:xlink="http://www.w3.org/1999/xlink" x="0px" y="0px"
	 width="42.52px" height="42.52px" viewBox="0 0 42.52 42.52" enable-background="new 0 0 42.52 42.52" xml:space="preserve">
<g>
	<circle fill="#007483" cx="21.26" cy="21.26" r="18.449"/>
	<path fill="#FFFFFF" d="M20.973,30.339c-2.283,0.018-4.963-0.132-7.638-0.378c-2.598-0.239-4.539-2.24-4.711-4.854
		C8.457,22.553,8.466,20,8.639,17.448c0.151-2.226,2.087-4.291,4.319-4.546c3.694-0.422,7.403-0.522,11.116-0.385
		c1.748,0.064,3.492,0.207,5.238,0.325c2.615,0.178,4.637,2.223,4.801,4.828c0.161,2.554,0.157,5.106-0.011,7.659
		c-0.147,2.242-2.074,4.312-4.322,4.577C26.99,30.233,24.186,30.342,20.973,30.339z M18.991,25.266
		c2.127-1.298,4.204-2.565,6.331-3.862c-2.13-1.3-4.207-2.566-6.331-3.862C18.991,20.134,18.991,22.661,18.991,25.266z"/>
</g>
</svg>
